HIERARCHY
ROOT Hips
{
	OFFSET 0.00000 0.00000 0.00000
	CHANNELS 6 Xposition Yposition Zposition Zrotation Yrotation Xrotation 
	JOINT LHipJoint
	{
		OFFSET 0 0 0
		CHANNELS 3 Zrotation Yrotation Xrotation
		JOINT LeftUpLeg
		{
			OFFSET 1.38280 -1.96574 0.54427
			CHANNELS 3 Zrotation Yrotation Xrotation
			JOINT LeftLeg
			{
				OFFSET 2.72096 -7.47578 0.00000
				CHANNELS 3 Zrotation Yrotation Xrotation
				JOINT LeftFoot
				{
					OFFSET 2.73041 -7.50176 0.00000
					CHANNELS 3 Zrotation Yrotation Xrotation
					JOINT LeftToeBase
					{
						OFFSET 0.16150 -0.44371 2.18031
						CHANNELS 3 Zrotation Yrotation Xrotation
						End Site
						{
							OFFSET 0.00000 -0.00000 1.12127
						}
					}
				}
			}
		}
	}
	JOINT RHipJoint
	{
		OFFSET 0 0 0
		CHANNELS 3 Zrotation Yrotation Xrotation
		JOINT RightUpLeg
		{
			OFFSET -1.57224 -1.96575 0.54427
			CHANNELS 3 Zrotation Yrotation Xrotation
			JOINT RightLeg
			{
				OFFSET -2.95935 -8.13076 0.00000
				CHANNELS 3 Zrotation Yrotation Xrotation
				JOINT RightFoot
				{
					OFFSET -2.52345 -6.93311 0.00000
					CHANNELS 3 Zrotation Yrotation Xrotation
					JOINT RightToeBase
					{
						OFFSET -0.04475 -0.10171 1.86688
						CHANNELS 3 Zrotation Yrotation Xrotation
						End Site
						{
							OFFSET -0.00000 -0.00000 0.95157
						}
					}
				}
			}
		}
	}
	JOINT LowerBack
	{
		OFFSET 0 0 0
		CHANNELS 3 Zrotation Yrotation Xrotation
		JOINT Spine
		{
			OFFSET 0.00669 2.07367 0.09104
			CHANNELS 3 Zrotation Yrotation Xrotation
			JOINT Spine1
			{
				OFFSET -0.00664 2.06198 -0.04732
				CHANNELS 3 Zrotation Yrotation Xrotation
				JOINT Neck
				{
					OFFSET 0 0 0
					CHANNELS 3 Zrotation Yrotation Xrotation
					JOINT Neck1
					{
						OFFSET -0.00021 1.49948 0.16345
						CHANNELS 3 Zrotation Yrotation Xrotation
						JOINT Head
						{
							OFFSET 0.06080 1.50567 -0.26702
							CHANNELS 3 Zrotation Yrotation Xrotation
							End Site
							{
								OFFSET 0.01726 1.56470 -0.11854
							}
						}
					}
				}
				JOINT LeftShoulder
				{
					OFFSET 0 0 0
					CHANNELS 3 Zrotation Yrotation Xrotation
					JOINT LeftArm
					{
						OFFSET 3.14993 0.82932 -0.22488
						CHANNELS 3 Zrotation Yrotation Xrotation
						JOINT LeftForeArm
						{
							OFFSET 5.68236 -0.00000 -0.00000
							CHANNELS 3 Zrotation Yrotation Xrotation
							JOINT LeftHand
							{
								OFFSET 3.17112 -0.00000 0.00000
								CHANNELS 3 Zrotation Yrotation Xrotation
								JOINT LeftFingerBase
								{
									OFFSET 0 0 0
									CHANNELS 3 Zrotation Yrotation Xrotation
									JOINT LeftHandIndex1
									{
										OFFSET 0.63269 -0.00000 0.00000
										CHANNELS 3 Zrotation Yrotation Xrotation
										End Site
										{
											OFFSET 0.51009 -0.00000 0.00000
										}
									}
								}
								JOINT LThumb
								{
									OFFSET 0 0 0
									CHANNELS 3 Zrotation Yrotation Xrotation
									End Site
									{
										OFFSET 0.51788 -0.00000 0.51788
									}
								}
							}
						}
					}
				}
				JOINT RightShoulder
				{
					OFFSET 0 0 0
					CHANNELS 3 Zrotation Yrotation Xrotation
					JOINT RightArm
					{
						OFFSET -3.10571 0.91279 -0.33334
						CHANNELS 3 Zrotation Yrotation Xrotation
						JOINT RightForeArm
						{
							OFFSET -5.87120 -0.00000 -0.00000
							CHANNELS 3 Zrotation Yrotation Xrotation
							JOINT RightHand
							{
								OFFSET -3.37589 -0.00000 0.00000
								CHANNELS 3 Zrotation Yrotation Xrotation
								JOINT RightFingerBase
								{
									OFFSET 0 0 0
									CHANNELS 3 Zrotation Yrotation Xrotation
									JOINT RightHandIndex1
									{
										OFFSET -0.60326 -0.00000 0.00000
										CHANNELS 3 Zrotation Yrotation Xrotation
										End Site
										{
											OFFSET -0.48636 -0.00000 0.00000
										}
									}
								}
								JOINT RThumb
								{
									OFFSET 0 0 0
									CHANNELS 3 Zrotation Yrotation Xrotation
									End Site
									{
										OFFSET -0.49379 -0.00000 0.49379
									}
								}
							}
						}
					}
				}
			}
		}
	}
}
MOTION
Frames: 15
Frame Time: 0.00930233
0.00 0.00 0.00 1636.8100 277.2130 -1608.9800 0.0000 0.0000 0.0000 -15.9956 -2.9852 -25.9538 5.8267 14.2583 44.2822 0.6252 -7.5336 -14.2581 1.4000 -7.4850 -21.1603 0.0000 0.0000 0.0000 3.3202 21.1736 -66.7251 -14.2247 -19.1808 72.8896 -0.0152 2.4676 -2.6131 -8.1458 16.2255 -53.0862 -4.1887 -4.1666 -6.2257 -1.2117 -5.2057 1.0148 0.5335 -2.6849 4.8007 -3.3568 3.8548 -22.2239 3.3780 5.6146 13.1869 2.3602 2.8479 7.4683 -0.0000 -0.0000 0.0000 -72.2597 -14.8974 47.9511 143.0280 -46.1700 -103.7802 -0.0000 0.0000 -28.3228 6.9778 25.9552 3.0662 -7.1250 0.0000 -0.0000 -24.0370 54.4419 -5.8310 -0.0000 -0.0000 0.0000 70.1769 -32.8346 41.5856 -101.5733 59.4878 -70.0056 0.0000 -0.0000 -25.0920 -29.8030 27.7069 -14.9124 7.1250 -0.0000 -0.0000 0.3137 1.2027 0.3202
0.00 0.00 0.00 1646.7300 277.1770 -1620.2000 0.0000 0.0000 0.0000 -14.6580 -0.6848 -19.3657 4.6152 12.9369 39.1328 0.2199 0.5584 -9.0772 0.7816 -5.6441 -15.7552 0.0000 0.0000 0.0000 2.2258 22.6066 -63.1744 -9.3312 -17.0162 57.2286 0.0141 2.1072 0.6753 -6.0775 14.5031 -45.2921 -2.5727 -4.4000 -5.9515 -0.1940 -5.6779 0.9484 0.6679 -2.8809 4.5418 -2.2652 4.8290 -21.1816 1.6964 6.8927 13.6760 1.7694 3.3342 7.5144 -0.0000 0.0000 0.0000 -73.4332 -10.0056 47.8920 145.2164 -44.6570 -105.3389 -0.0000 0.0000 -28.8491 6.8781 27.5074 3.1888 -7.1250 0.0000 -0.0000 -25.1606 55.8263 -7.0005 -0.0000 0.0000 0.0000 71.0496 -34.7512 37.2055 -102.3321 59.4175 -70.6590 0.0000 -0.0000 -24.0077 -29.6367 27.4927 -14.7156 7.1250 -0.0000 -0.0000 0.3736 0.9300 0.3796
0.00 0.00 0.00 1651.5900 277.1200 -1625.8300 0.0000 0.0000 0.0000 -14.2060 -2.5615 -13.1534 3.8892 12.0114 35.7724 -0.0994 7.8355 -8.7143 0.6435 -5.1317 -14.2846 0.0000 0.0000 0.0000 -1.5272 25.7457 -58.9886 -5.4623 -13.8862 42.7835 -0.0281 -1.2593 2.9809 -4.6508 12.9794 -39.2913 -1.5535 -4.4796 -6.5768 0.5996 -5.8793 1.0095 0.8465 -2.9628 4.9459 -0.8418 5.7045 -20.9986 -0.1666 8.0197 14.3669 1.0862 3.7390 7.8325 -0.0000 0.0000 0.0000 -74.6107 -5.2758 48.6697 147.8129 -42.6959 -107.1325 -0.0000 0.0000 -28.9068 7.3203 27.9493 3.4456 -7.1250 0.0000 -0.0000 -25.0359 56.3120 -7.2643 -0.0000 0.0000 0.0000 72.4490 -35.3920 32.9383 -103.8059 59.2674 -71.9268 0.0000 -0.0000 -22.8213 -30.7392 26.6488 -14.9347 7.1250 -0.0000 -0.0000 -0.4221 0.2985 -0.4243
0.00 0.00 0.00 1662.3200 273.3860 -1639.4600 0.0000 0.0000 0.0000 -16.9905 -12.3683 -6.8725 6.7579 15.1246 47.9527 0.0836 9.6018 -15.0141 1.1919 -6.9279 -19.5018 0.0000 0.0000 0.0000 -4.0185 25.1977 -51.3296 -4.8601 -13.2244 40.2145 -0.0243 3.0429 5.4817 -4.6078 12.9280 -39.0995 -0.1016 -4.2151 -7.8301 1.8188 -5.7324 1.5891 1.1968 -2.8638 6.2446 0.1141 6.5185 -20.3049 -3.5214 9.5304 15.3449 0.0306 4.1210 8.2734 0.0000 -0.0000 0.0000 -76.5403 6.9542 52.0304 152.7977 -38.3715 -110.3755 -0.0000 0.0000 -26.9122 8.3504 25.9980 3.6814 -7.1250 0.0000 -0.0000 -22.7311 54.7386 -5.6560 0.0000 -0.0000 0.0000 74.6347 -33.4203 28.7785 -117.0240 57.0522 -83.1719 0.0000 -0.0000 -21.6194 -41.4371 29.2026 -23.3017 7.1250 -0.0000 -0.0000 -5.9839 6.5488 -6.6619
0.00 0.00 0.00 1692.5100 274.7990 -1670.4200 0.0000 0.0000 0.0000 -14.8787 -13.2841 -12.3360 10.9697 17.9202 62.6832 0.1578 6.7526 -12.7970 1.9635 -8.7896 -25.1394 0.0000 0.0000 0.0000 2.7376 22.6583 -51.3562 -7.4930 -15.7333 50.7151 0.5849 14.0203 0.7786 -3.2034 11.0173 -32.3383 2.7781 -2.7326 -7.3842 2.9360 -4.1208 1.6872 0.9942 -2.0049 5.9297 0.6401 6.7108 -20.0977 -5.4434 10.0069 15.1409 -0.6287 4.1727 8.3229 0.0000 -0.0000 0.0000 -77.1360 12.2033 52.0066 151.0399 -39.9852 -109.2649 -0.0000 0.0000 -26.2104 8.3009 25.5735 3.6037 -7.1250 0.0000 -0.0000 -22.5184 54.3388 -5.3743 0.0000 -0.0000 0.0000 74.5257 -29.0164 29.5888 -119.0116 56.5676 -84.8353 0.0000 -0.0000 -20.6592 -42.3629 29.5422 -24.2109 7.1250 -0.0000 -0.0000 -6.4051 7.3006 -7.2097
0.00 0.00 0.00 1689.5500 278.1680 -1666.7800 0.0000 0.0000 0.0000 -11.7743 -10.9125 -24.8052 16.7918 19.7514 80.5823 0.3748 6.7918 -16.0163 1.9219 -8.7016 -24.8661 0.0000 0.0000 0.0000 6.5219 25.1672 -52.5048 -10.1814 -17.5106 60.0928 1.0730 21.2416 -4.2910 -2.8667 10.4760 -30.5324 4.4481 -0.3789 -7.2479 4.1310 -1.2767 2.0036 1.6621 -0.5874 6.1811 1.0932 7.0673 -20.6832 -7.2047 10.6489 14.2643 -1.1841 4.3257 8.2881 -0.0000 0.0000 0.0000 -79.0093 17.1621 50.0468 144.7132 -45.0158 -104.9842 -0.0000 0.0000 -28.2053 10.5931 25.9634 4.6808 -7.1250 0.0000 -0.0000 -20.5069 55.1343 -5.2658 -0.0000 0.0000 0.0000 72.9627 -19.8215 32.3948 -112.9601 57.9112 -79.7446 0.0000 -0.0000 -17.2897 -41.7243 29.7994 -23.9009 7.1250 -0.0000 -0.0000 -5.9873 7.3374 -6.7377
0.00 0.00 0.00 1695.7700 278.2140 -1673.4400 0.0000 0.0000 0.0000 -11.8084 -9.0580 -43.2790 22.5356 19.8452 97.4319 1.2636 7.9998 -25.5090 0.7540 -5.5460 -15.4728 0.0000 0.0000 0.0000 9.7007 24.3917 -47.8667 -11.9851 -18.3844 65.9417 1.4043 27.6242 -9.8453 -2.8031 10.3693 -30.1810 3.2520 1.6480 -5.7576 4.3964 1.5800 2.5915 2.9332 0.7649 5.9086 1.5127 7.3268 -21.6842 -9.2373 11.2346 13.7458 -1.8133 4.3890 8.4792 -0.0000 -0.0000 0.0000 -80.2819 22.7978 47.0185 131.2178 -52.4924 -94.7952 -0.0000 0.0000 -28.6619 13.6959 27.0922 6.3331 -7.1250 0.0000 -0.0000 -18.0754 56.8201 -5.3566 -0.0000 -0.0000 0.0000 69.9113 -4.8091 39.6226 -104.6879 59.1689 -72.6846 0.0000 -0.0000 -12.7576 -41.0860 29.8483 -23.4591 7.1250 -0.0000 -0.0000 -5.6243 7.1429 -6.3087
0.00 0.00 0.00 1760.1600 284.2450 -1737.3400 0.0000 0.0000 0.0000 -12.5097 -16.1866 -63.5456 19.1583 19.9830 87.5384 1.2888 1.2079 -21.9217 1.0603 -6.5468 -18.3794 0.0000 0.0000 0.0000 20.6103 15.5665 -28.9759 -8.2804 -16.3217 53.5665 0.0678 20.8397 -14.1296 -4.4949 12.7914 -38.5925 4.0969 3.4269 -7.8423 3.5718 3.8906 1.3289 1.9338 1.9587 5.8190 0.3633 4.1959 -22.8216 -4.7603 6.5374 14.7260 -0.7773 2.5670 8.4982 -0.0000 0.0000 0.0000 -73.8664 29.0335 51.3967 131.9104 -52.1953 -95.3435 -0.0000 0.0000 -29.3012 8.5654 24.7037 3.6019 -7.1250 0.0000 -0.0000 -21.7481 53.5838 -4.7664 -0.0000 0.0000 0.0000 69.5276 0.6771 45.7530 -124.3208 55.0441 -89.2281 0.0000 -0.0000 -11.6120 -37.3864 32.4618 -22.3017 7.1250 -0.0000 -0.0000 -2.9366 8.6562 -3.3493
0.00 0.00 0.00 1768.2400 287.7720 -1747.2000 0.0000 0.0000 0.0000 -15.7979 -16.2227 -61.6832 13.6632 19.0087 71.1733 1.0466 -2.8005 -18.6013 0.3863 -3.9910 -11.0514 0.0000 0.0000 0.0000 23.6235 7.5913 -21.0984 -6.2869 -14.7008 46.1227 0.3163 12.9136 -4.1147 -7.8055 15.9743 -51.8590 3.7021 3.9377 -7.0783 2.6703 4.7515 0.9439 1.2460 2.3949 5.0237 -0.5211 2.9004 -22.3814 -2.4996 4.6209 15.3078 -0.1392 1.8624 8.4815 -0.0000 -0.0000 0.0000 -72.5846 30.7029 51.5337 131.1530 -52.5198 -94.7438 -0.0000 0.0000 -29.5699 9.3917 25.1153 4.0157 -7.1250 0.0000 -0.0000 -21.1846 54.1165 -4.9155 -0.0000 -0.0000 0.0000 70.8663 -1.4628 46.6249 -126.6636 54.2556 -91.1391 0.0000 -0.0000 -10.9416 -35.7989 33.0920 -21.4925 7.1250 -0.0000 -0.0000 -1.9204 8.7824 -2.1922
0.00 0.00 0.00 1771.2700 289.9820 -1751.6000 0.0000 0.0000 0.0000 -19.5916 -14.8090 -58.1970 8.7687 16.6565 55.2867 0.5667 -2.0266 -13.6693 0.8519 -5.8864 -16.4552 0.0000 0.0000 0.0000 24.1250 1.3474 -16.0241 -5.0325 -13.4203 40.9630 0.3351 10.4235 6.1402 -9.8272 17.3116 -58.9094 3.4301 4.2018 -7.2164 1.9030 5.1819 0.7271 0.6540 2.6164 4.9249 -0.9097 2.2542 -21.7217 -1.1950 3.6059 16.1169 0.2260 1.4992 8.5981 0.0000 0.0000 0.0000 -72.5816 32.3282 50.6031 130.8170 -52.6606 -94.4769 -0.0000 0.0000 -29.5037 10.8755 26.1307 4.8366 -7.1250 0.0000 -0.0000 -20.3280 55.3455 -5.3232 0.0000 0.0000 0.0000 72.3485 -3.2255 47.3939 -125.4333 54.6791 -90.1379 0.0000 -0.0000 -10.4666 -34.1609 33.0059 -20.2869 7.1250 -0.0000 -0.0000 -1.0538 8.1462 -1.1927
0.00 0.00 0.00 1774.0800 292.6300 -1754.7600 0.0000 0.0000 0.0000 -21.9367 -14.9345 -54.5762 4.8361 13.1968 40.1098 0.3496 -1.9914 -10.6545 0.5043 -4.5525 -12.6365 0.0000 0.0000 0.0000 24.2499 -1.8763 -11.6154 -4.1836 -12.4008 37.1650 0.1513 9.0037 9.4800 -10.1766 17.5080 -60.0769 2.9586 4.0224 -8.6144 1.3320 4.9684 0.4060 0.3891 2.5065 5.3814 -1.2720 1.9438 -21.3321 -0.0317 3.0540 17.0686 0.6097 1.3356 8.8287 -0.0000 -0.0000 0.0000 -72.7482 33.5264 49.4390 131.4627 -52.3883 -94.9893 -0.0000 0.0000 -29.5601 11.1206 26.4214 4.9987 -7.1250 0.0000 -0.0000 -20.2614 55.6657 -5.4648 -0.0000 -0.0000 0.0000 73.7746 -4.5764 48.1257 -122.8228 55.5096 -87.9968 0.0000 -0.0000 -10.1646 -32.7511 32.2657 -18.9523 7.1250 -0.0000 -0.0000 -0.4525 6.9137 -0.5037
0.00 0.00 0.00 1767.4300 297.7260 -1753.6000 0.0000 0.0000 0.0000 -22.0218 -10.9245 -50.0111 4.7563 13.1040 39.7589 1.0093 3.9694 -20.8031 0.6388 5.1135 14.2325 0.0000 0.0000 0.0000 22.9870 -1.8056 -2.3348 -7.5469 -15.7757 50.9138 -0.0594 -1.0755 4.3515 -8.9234 16.7582 -55.8248 4.0953 3.9825 -9.2542 1.4399 4.7302 1.3095 -0.0652 2.4367 6.7811 -1.9746 2.6479 -20.5905 1.2735 3.9368 17.3411 1.2772 1.8466 8.7394 -0.0000 -0.0000 0.0000 -76.9930 31.3189 45.8811 135.5394 -50.5015 -98.1782 -0.0000 0.0000 -30.3842 9.8616 24.8644 4.1805 -7.1250 0.0000 -0.0000 -20.5823 53.9687 -4.6906 -0.0000 -0.0000 0.0000 75.8231 -8.3646 48.8136 -116.1625 57.2487 -82.4481 0.0000 -0.0000 -7.4231 -30.7729 32.6200 -17.7967 7.1250 -0.0000 -0.0000 0.7139 6.7001 0.7924
0.00 0.00 0.00 1771.5200 295.8860 -1757.3600 0.0000 0.0000 0.0000 -23.2899 -13.9713 -51.5324 7.4356 15.6880 50.5030 2.3029 2.2277 -29.5533 0.4971 4.5203 12.5454 0.0000 0.0000 0.0000 16.7004 0.0962 -6.8002 -11.1495 -18.0075 63.2662 -0.0671 -0.4556 4.7505 -8.9264 16.7601 -55.8352 0.7515 3.5064 -9.2947 0.4218 4.5632 1.4363 0.7045 2.2569 6.7433 -2.0956 3.3726 -20.1562 1.0444 4.9964 16.3431 1.3284 2.3287 8.3067 -0.0000 -0.0000 0.0000 -78.2987 27.9499 45.4310 135.2804 -50.6304 -97.9782 -0.0000 0.0000 -31.2844 10.2926 26.0470 4.5592 -7.1250 0.0000 -0.0000 -20.8546 55.1545 -5.3714 -0.0000 -0.0000 0.0000 76.5348 -9.1387 48.4482 -111.9377 58.1011 -78.8775 0.0000 -0.0000 -7.7554 -31.4557 32.6965 -18.2864 7.1250 -0.0000 -0.0000 0.3546 6.9805 0.3950
0.00 0.00 0.00 1775.9300 296.4130 -1760.6800 0.0000 0.0000 0.0000 -24.9350 -14.4218 -52.7652 10.0176 17.4197 59.5471 3.3958 -4.0797 -33.9974 0.6271 5.0673 14.1007 0.0000 0.0000 0.0000 11.3979 2.9162 -16.6796 -16.3900 -19.6846 79.3915 -0.0221 -2.4337 2.9317 -7.7457 15.9290 -51.6415 -0.4702 2.7717 -9.1506 -0.5040 3.7849 1.3711 0.2912 1.8494 6.5754 -3.2844 3.9136 -20.1209 1.5582 5.9699 15.7785 1.7953 2.7810 8.0361 -0.0000 0.0000 0.0000 -77.6636 20.8439 47.1812 132.7590 -51.8203 -96.0122 -0.0000 0.0000 -30.3959 11.3364 27.1042 5.2190 -7.1250 0.0000 -0.0000 -20.4731 56.3478 -5.8694 -0.0000 0.0000 0.0000 78.2535 -10.7695 46.1489 -102.1110 59.4385 -70.4687 0.0000 -0.0000 -8.2911 -34.1290 31.3901 -19.4448 7.1250 -0.0000 -0.0000 -1.4095 6.4048 -1.5584
0.00 0.00 0.00 1788.8700 319.9730 -1775.3400 0.0000 0.0000 0.0000 -26.0101 -4.1626 -19.0124 6.4131 14.8170 46.6178 0.2951 -7.8905 -10.4016 0.0329 1.1704 3.2178 0.0000 0.0000 0.0000 -5.0786 33.2046 -47.5226 -5.2389 -13.6478 41.8447 -0.0063 -0.6126 -1.8599 -2.0042 -8.8749 25.4046 1.7260 -2.7240 -8.0415 2.8751 -4.0161 1.8254 1.4951 -1.9757 6.5172 -1.2623 6.0529 -18.7122 -2.4327 9.1517 17.5805 0.5467 3.9321 8.6271 0.0000 -0.0000 0.0000 -82.7761 7.8268 56.7579 135.6480 -50.4470 -98.2620 -0.0000 0.0000 -31.3324 13.5734 23.0167 5.3928 -7.1250 0.0000 -0.0000 -15.9905 52.8749 -3.1631 0.0000 -0.0000 0.0000 80.3712 -27.7698 32.2780 -107.5693 58.8009 -75.1542 0.0000 -0.0000 -11.8781 -32.4026 30.8980 -18.0517 7.1250 -0.0000 -0.0000 -0.5557 5.3477 -0.6051
